<svg xmlns="http://www.w3.org/2000/svg" width="95.713" height="95.589" viewBox="0 0 95.713 95.589"><defs><style>.a{fill:#fff;}.b{opacity:0.7;}</style></defs><g transform="translate(-6546.578 -13269.894)"><g transform="translate(6546.578 13269.894)"><g transform="translate(0 0)"><g transform="translate(0 0.151)"><path class="a" d="M6598.553,13318.058a13.4,13.4,0,0,1,12.847-8.479c6.462-.017,12.922-.007,19.386-.007h1.063v-1.095c0-6.347.01-12.689,0-19.036a13.748,13.748,0,0,1,4.62-10.74,13.083,13.083,0,0,1,6.641-3.213c-.627.984-1.2,1.816-1.7,2.683a26.291,26.291,0,0,0-3.478,10.658c-.575,5.476.579,10.7,2.208,15.845,1.282,4.054,2.733,8.051,4.009,12.105a9.075,9.075,0,0,1,.25,5.828c-.375,1.061-1.011,2.022-1.46,3.061a16.338,16.338,0,0,0-1.482,6.664,9.844,9.844,0,0,0,1.081,4.708,8.342,8.342,0,0,1,.819,4.829,64.368,64.368,0,0,1-4.021,18.1c-.92,2.4-2.1,4.7-3.231,7.213a13.5,13.5,0,0,1-3.261-4.8,14.284,14.284,0,0,1-.984-5.47q-.015-9.52,0-19.036v-1.14h-1.1c-6.462,0-12.926.02-19.386-.006a13.645,13.645,0,0,1-13.132-9.565,12.371,12.371,0,0,1-.5-5.813c13.191,7.94,27.321,12.207,42.884,11.8-.93-2.727.176-4.972,1.111-7.247.459-1.124.946-2.242,1.332-3.391.263-.791-.092-1.2-.919-1.055a13.03,13.03,0,0,0-2.325.677,42.478,42.478,0,0,1-15.732,2.972,45.909,45.909,0,0,1-15.305-2.994C6605.379,13320.873,6602.047,13319.454,6598.553,13318.058Z" transform="translate(-6597.578 -13275.487)"/></g><g class="b" transform="translate(41.779 41.47)"><path class="a" d="M7058.958,13732.264v20.693a13.489,13.489,0,0,1-11.728,13.441,13.332,13.332,0,0,1-7.337-1.079c-.235-.1-.456-.235-.543-.282,1.694-2.976,3.486-5.842,5-8.849a63.86,63.86,0,0,0,5.88-18.035c.659-3.835,1.06-7.712,1.606-11.562a.971.971,0,0,1,.473-.676c6.266-2.382,12.07-5.712,18.041-8.705a47.812,47.812,0,0,1,11.333-4.369,16.281,16.281,0,0,1,10,.791,1.59,1.59,0,0,1,.976,1.1,13.56,13.56,0,0,1-13.186,17.524c-6.432.032-12.866,0-19.3,0Zm22.921-8.47a7.268,7.268,0,0,0,.786,0,4.4,4.4,0,0,0,3.973-2.692,3.906,3.906,0,0,0-1.238-4.429,6.873,6.873,0,0,0-6.773-1.822c-3.321.832-4.275,4.317-1.91,6.8A6.826,6.826,0,0,0,7081.88,13723.794Z" transform="translate(-7039.351 -13712.407)"/></g><g class="b" transform="translate(43.761)"><path class="a" d="M7109.576,13313.611c-1.354-.282-2.562-.529-3.769-.784a27.262,27.262,0,0,0-13.933.956c-5.332,1.67-10.3,4.216-15.37,6.512-1.9.86-3.807,1.714-5.855,2.638-.165-.921-.312-1.756-.467-2.587a71.877,71.877,0,0,0-4.4-13.521,94,94,0,0,1-4.721-13.34,23.974,23.974,0,0,1,2.991-18.922,1.242,1.242,0,0,1,1.352-.657,13.616,13.616,0,0,1,12.493,12.032,20.518,20.518,0,0,1,.069,2.365q.007,9.334,0,18.677v1.188h1.068c6.722,0,13.446-.076,20.169.025C7103.448,13308.259,7106.836,13310.212,7109.576,13313.611Zm-38.515-25.242a6.194,6.194,0,0,0-.675-2.638,3.7,3.7,0,0,0-5.759-1.33,6.972,6.972,0,0,0-1.587,8.965,3.644,3.644,0,0,0,5.27,1.076C7070.3,13293.116,7070.9,13291.167,7071.062,13288.369Z" transform="translate(-7060.307 -13273.896)"/></g></g></g></g></svg>